<svg width="1600" height="900" viewBox="0 0 1600 900" fill="none" xmlns="http://www.w3.org/2000/svg">
  <defs>
    <linearGradient id="bg" x1="160" y1="96" x2="1450" y2="828" gradientUnits="userSpaceOnUse">
      <stop stop-color="#090D12"/>
      <stop offset="0.5" stop-color="#0C1218"/>
      <stop offset="1" stop-color="#030405"/>
    </linearGradient>
    <radialGradient id="glowA" cx="0" cy="0" r="1" gradientUnits="userSpaceOnUse" gradientTransform="translate(1230 180) rotate(132.257) scale(404.402 264.589)">
      <stop stop-color="#2154F3" stop-opacity="0.24"/>
      <stop offset="1" stop-color="#2154F3" stop-opacity="0"/>
    </radialGradient>
    <radialGradient id="glowB" cx="0" cy="0" r="1" gradientUnits="userSpaceOnUse" gradientTransform="translate(384 250) rotate(48.891) scale(532.736 321.586)">
      <stop stop-color="#19D7B4" stop-opacity="0.18"/>
      <stop offset="1" stop-color="#19D7B4" stop-opacity="0"/>
    </radialGradient>
    <radialGradient id="glowC" cx="0" cy="0" r="1" gradientUnits="userSpaceOnUse" gradientTransform="translate(824 736) rotate(90) scale(218 648)">
      <stop stop-color="#FFFFFF" stop-opacity="0.06"/>
      <stop offset="1" stop-color="#FFFFFF" stop-opacity="0"/>
    </radialGradient>
    <pattern id="grid" width="64" height="64" patternUnits="userSpaceOnUse">
      <path d="M64 0H0V64" stroke="white" stroke-opacity="0.06"/>
    </pattern>
  </defs>
  <rect width="1600" height="900" fill="url(#bg)"/>
  <rect width="1600" height="900" fill="url(#grid)"/>
  <rect width="1600" height="900" fill="url(#glowA)"/>
  <rect width="1600" height="900" fill="url(#glowB)"/>
  <rect width="1600" height="900" fill="url(#glowC)"/>
  <path d="M0 690C152 628 276 597 438 608C618 620 718 718 890 718C1067 718 1156 612 1314 569C1422 540 1508 550 1600 588V900H0V690Z" fill="url(#bg)" fill-opacity="0.72"/>
  <path d="M143 690L422 470L665 548L900 365L1172 454L1468 264" stroke="#19D7B4" stroke-opacity="0.22" stroke-width="2"/>
  <circle cx="143" cy="690" r="10" fill="#19D7B4" fill-opacity="0.85"/>
  <circle cx="422" cy="470" r="10" fill="#2154F3" fill-opacity="0.82"/>
  <circle cx="665" cy="548" r="10" fill="white" fill-opacity="0.55"/>
  <circle cx="900" cy="365" r="10" fill="#19D7B4" fill-opacity="0.82"/>
  <circle cx="1172" cy="454" r="10" fill="#2154F3" fill-opacity="0.82"/>
  <circle cx="1468" cy="264" r="10" fill="white" fill-opacity="0.55"/>
</svg>
